<svg width="38" height="28" viewBox="0 0 38 28" fill="none" xmlns="http://www.w3.org/2000/svg">
<path d="M4.98127 13.166C5.02479 13.1418 5.0683 13.1171 5.11356 13.0929C5.61369 12.8177 6.14805 12.5384 6.71085 12.2632L6.89013 12.1734C6.9673 12.136 7.04504 12.0985 7.12453 12.0628C7.33224 11.9638 7.5417 11.8642 7.75695 11.7669H7.75811C8.81988 6.65469 13.3333 2.98419 18.6415 2.98419C21.7009 2.98419 24.6182 4.23878 26.7156 6.43877C26.7162 6.43877 26.7173 6.43877 26.7179 6.43877C26.9517 6.41056 27.1844 6.38465 27.4147 6.35989C27.5017 6.35068 27.5865 6.34147 27.6717 6.33341L27.6944 6.33168C28.3871 6.26777 29.0538 6.22114 29.6763 6.19292C29.7257 6.1912 29.7726 6.18889 29.8196 6.18716L29.9067 6.18313C30.0575 6.17738 30.2032 6.17392 30.3482 6.17162C30.2786 6.06913 30.2084 5.9678 30.1359 5.86474C27.4843 2.19309 23.1874 0 18.6415 0C11.2382 0 5.04741 5.73461 4.54786 13.0578C4.54032 13.1804 4.53452 13.3036 4.5293 13.4263C4.65172 13.3554 4.77588 13.284 4.90411 13.2115L4.98127 13.1666V13.166Z" fill="url(#paint0_linear_271_212)"/>
<path d="M32.4402 11.1877C32.3004 10.5169 32.1135 9.86515 31.8815 9.23584C31.6569 9.2226 31.415 9.21338 31.1527 9.20935C31.0471 9.20532 30.9433 9.20532 30.8394 9.20532H30.8261C30.4106 9.20532 30.0051 9.21626 29.5856 9.23929C29.4458 9.24505 29.3083 9.25253 29.1644 9.26175H29.1603L29.1226 9.26578C29.1058 9.2675 29.0866 9.2675 29.0698 9.26981C29.0507 9.27557 29.0321 9.28305 29.0129 9.28881C29.0095 9.28305 29.0071 9.2796 29.0037 9.27384C28.9468 9.27787 28.8923 9.28132 28.8354 9.28535C28.8244 9.28708 28.8145 9.28938 28.8035 9.28938C28.7524 9.29111 28.7054 9.29514 28.6561 9.30032C28.5882 9.30435 28.5354 9.30781 28.4826 9.31357L28.46 9.31529C28.1844 9.33947 27.9071 9.36423 27.6216 9.3959L27.4365 9.41663C27.3669 9.42239 27.3066 9.42987 27.248 9.43736C27.1876 9.44311 27.1348 9.44887 27.082 9.45636C27.0159 9.46384 26.9596 9.47133 26.9045 9.47881L26.8685 9.48284C26.7287 9.49954 26.5947 9.51681 26.4606 9.53524L26.4096 9.54099L26.2605 9.56172L26.0208 9.59569L25.9982 9.59972L25.9907 9.60145L25.9681 9.60548C25.9263 9.60951 25.8833 9.61699 25.8416 9.62218C25.7377 9.63715 25.6414 9.65211 25.5433 9.66708C25.5433 9.66708 25.3699 9.69357 25.3449 9.69702L25.1958 9.72121L25.1807 9.72524L25.0484 9.74597C24.9179 9.76497 24.792 9.78512 24.6632 9.80987C24.5199 9.83406 24.376 9.85881 24.2344 9.883C24.1776 9.89221 24.1189 9.90372 24.0627 9.91294L23.8642 9.95036C23.6699 9.98606 23.4732 10.0218 23.2771 10.0609L23.1413 10.0874C23.0241 10.1116 22.9052 10.134 22.7862 10.1588C22.5408 10.2095 22.2936 10.2618 22.0442 10.3142L22.0273 10.3183L22.0082 10.3223C21.7871 10.3689 21.5777 10.4162 21.3665 10.4645C21.3473 10.4685 21.3346 10.472 21.3212 10.4755L21.2667 10.4922H21.2475C21.0398 10.5388 20.8321 10.5877 20.6227 10.6401L20.5774 10.6516H20.5716C20.3622 10.7006 20.1527 10.753 19.9409 10.8071C19.7332 10.856 19.5313 10.9084 19.3277 10.9608C19.258 10.9798 19.1936 10.9965 19.1275 11.0149C18.9424 11.0616 18.7631 11.1088 18.5821 11.1595C18.3912 11.2119 18.1992 11.2643 18.0065 11.319L17.8801 11.3547C17.3532 11.5026 16.8322 11.6564 16.3153 11.8135C16.0849 11.8826 15.8563 11.954 15.63 12.0271C15.3486 12.1152 15.0713 12.2051 14.794 12.2972C14.5863 12.3663 14.3785 12.4359 14.1749 12.5068C13.9353 12.5874 13.6974 12.6697 13.463 12.7543C13.2269 12.8367 12.9948 12.9213 12.7627 13.0071C12.425 13.1309 12.0926 13.2564 11.7659 13.3836C11.6452 13.4303 11.5245 13.4775 11.4056 13.5241C11.2942 13.569 11.1845 13.6122 11.0755 13.6571C10.2957 13.9721 9.54838 14.2939 8.84402 14.6198C8.65719 14.7062 8.47385 14.792 8.29457 14.8783C7.91164 15.0637 7.54147 15.2491 7.18639 15.4368L7.07151 15.495C6.981 15.5439 6.89223 15.5905 6.80346 15.6412C6.33697 15.894 5.8821 16.1583 5.44811 16.4317C5.40285 16.46 5.35934 16.4882 5.31582 16.5158V16.5175C5.27405 16.544 5.23285 16.5717 5.19108 16.5981C5.18934 16.5999 5.1876 16.5999 5.18528 16.6022C5.14176 16.6304 5.10057 16.6586 5.05879 16.6862C5.01354 16.7162 4.97002 16.7461 4.92651 16.776C4.89808 16.795 4.86965 16.8152 4.8418 16.8342V16.8359C4.97988 17.5067 5.16671 18.1602 5.39879 18.7918C5.79913 19.8875 6.33349 20.9198 6.98274 21.8681C9.51647 25.568 13.792 28 18.6419 28C26.2199 28 32.4002 22.0633 32.7158 14.6204C32.7251 14.4217 32.7291 14.2214 32.7291 14.021C32.7291 13.0526 32.6293 12.1043 32.4402 11.1923V11.1877ZM6.12752 19.2058C6.1368 19.2075 6.14667 19.2075 6.15595 19.2075C6.18612 19.2657 6.19773 19.3238 6.20121 19.3797L6.12752 19.2052V19.2058ZM29.6802 15.3637C29.6384 15.6412 29.6065 15.8341 29.6007 15.8715C29.5798 15.993 29.5589 16.1036 29.5403 16.2066C29.5235 16.289 29.5061 16.3678 29.4893 16.4427C28.3625 21.4317 23.7993 25.0509 18.6401 25.0509C15.2744 25.0509 12.1274 23.5614 10.0073 20.9653C9.67312 20.5548 9.3749 20.1374 9.12194 19.7194L9.08248 19.652C8.99777 19.5098 8.92003 19.3745 8.84866 19.2438C14.4557 14.5323 24.5141 10.81 28.858 9.34293C28.9108 9.45693 28.9636 9.57496 29.0129 9.69127C29.7701 11.4767 29.9703 13.4476 29.6813 15.3637H29.6802Z" fill="url(#paint1_linear_271_212)"/>
<path d="M6.12695 19.2063L6.20064 19.3808C6.19658 19.3243 6.18555 19.2668 6.15538 19.2086C6.1461 19.2086 6.13624 19.2086 6.12695 19.2069V19.2063Z" fill="#1A1A1A"/>
<path d="M37.1782 8.80282C36.6723 7.03062 34.6015 6.1687 30.8447 6.1687C30.6916 6.1687 30.5372 6.17043 30.3765 6.17216H30.3481C30.203 6.17388 30.0574 6.17791 29.9066 6.18367L29.8195 6.1877C29.7725 6.18943 29.725 6.19173 29.6762 6.19346C29.0531 6.22167 28.387 6.26831 27.6943 6.33222L27.6716 6.33395C27.5869 6.34143 27.5016 6.35064 27.4146 6.36043C27.1843 6.38461 26.9522 6.4111 26.7178 6.43931C26.7172 6.43931 26.716 6.43931 26.7155 6.43931C26.6406 6.44852 26.5623 6.45946 26.4874 6.46925C26.289 6.49343 26.0888 6.52165 25.8869 6.54813C25.6926 6.57462 25.4982 6.60225 25.3015 6.63219C25.1031 6.66213 24.9052 6.69207 24.7033 6.72374C24.4939 6.75771 24.2844 6.79283 24.0709 6.82853C23.8783 6.8625 23.6857 6.89416 23.493 6.92986C23.2627 6.97132 23.0306 7.01623 22.7985 7.06114C22.6175 7.09683 22.4359 7.13023 22.2531 7.16765C21.9984 7.21832 21.7397 7.27417 21.4809 7.32887C21.3167 7.36456 21.1525 7.39796 20.9866 7.43538C20.6994 7.49929 20.411 7.56666 20.1197 7.63575C19.9782 7.66972 19.8366 7.70139 19.695 7.73478C19.3626 7.81539 19.0284 7.89945 18.6925 7.98581C18.5886 8.0123 18.4847 8.03821 18.3791 8.06469C17.9376 8.181 17.492 8.30076 17.0464 8.42627C16.8201 8.49018 16.5933 8.55582 16.3688 8.62088C16.3461 8.62664 16.3252 8.63412 16.3026 8.63988C16.1007 8.69976 15.8988 8.75791 15.6986 8.81952C15.6684 8.82701 15.64 8.83622 15.6116 8.84601C15.419 8.90416 15.2263 8.96231 15.036 9.02219C15.0018 9.03313 14.9681 9.04292 14.9339 9.05386C14.7488 9.11201 14.5637 9.17016 14.381 9.23004C14.3433 9.24156 14.3056 9.25422 14.2678 9.26574C14.0903 9.32389 13.9128 9.38204 13.7375 9.4402C13.6958 9.45344 13.6546 9.46841 13.6128 9.48165C13.4411 9.5398 13.2711 9.59565 13.1034 9.6538C13.0564 9.6705 13.0111 9.68547 12.9653 9.70274C12.8028 9.75687 12.6427 9.81502 12.4802 9.87144C12.4309 9.89044 12.3805 9.90714 12.3294 9.92556C12.1762 9.97969 12.0236 10.0344 11.8728 10.0902C11.8159 10.111 11.7596 10.1317 11.701 10.1518C11.5612 10.2042 11.4214 10.2549 11.2839 10.3073C11.2177 10.3315 11.1498 10.358 11.0837 10.3821C10.9607 10.4288 10.8383 10.476 10.7153 10.5244C10.6358 10.5543 10.5569 10.5842 10.4791 10.6159C10.3811 10.6533 10.2848 10.6925 10.1867 10.7322C10.0869 10.7714 9.98481 10.8128 9.88443 10.852C9.83744 10.871 9.79392 10.8894 9.74867 10.9084C9.06171 11.1894 8.39506 11.4744 7.75916 11.7663H7.75742C7.54216 11.8636 7.33271 11.9632 7.125 12.0622C7.04551 12.0979 6.96835 12.1353 6.8906 12.1728L6.71132 12.2626C6.14852 12.5378 5.61474 12.8171 5.11403 13.0923C5.06877 13.1165 5.02526 13.1412 4.98174 13.1654L4.90457 13.2103C4.77635 13.2834 4.65219 13.3542 4.52976 13.4251C4.52976 13.4251 4.52977 13.4251 4.52919 13.4251C3.76448 13.873 3.10015 14.3112 2.53214 14.7459C2.52807 14.7476 2.52633 14.7499 2.52459 14.7516C2.45497 14.804 2.38883 14.8564 2.32094 14.9088C2.3076 14.9197 2.29251 14.9313 2.27917 14.9428C2.22057 14.9894 2.16603 15.0343 2.10917 15.0815C2.08828 15.0982 2.0674 15.1172 2.04709 15.1339C1.99777 15.1754 1.94903 15.2163 1.90146 15.2594C1.87709 15.2802 1.8504 15.3009 1.82777 15.3234C1.78426 15.3608 1.74306 15.3999 1.69955 15.4374C1.67286 15.4615 1.64675 15.4863 1.62006 15.5122C1.58235 15.5479 1.54464 15.5836 1.50866 15.6187C1.48023 15.6452 1.4518 15.6711 1.42569 15.6993C1.39146 15.7333 1.35955 15.7667 1.3259 15.8007C1.29921 15.8289 1.27136 15.8571 1.24467 15.8847C1.2145 15.9187 1.18433 15.9504 1.15416 15.9838C1.12747 16.012 1.10136 16.0419 1.07699 16.0701C1.04856 16.1018 1.02245 16.134 0.994024 16.1657C0.969655 16.1956 0.944707 16.2256 0.920339 16.2555C0.89597 16.2872 0.869281 16.3171 0.844913 16.3494C0.822285 16.3793 0.799657 16.4092 0.777029 16.4392C0.754401 16.4709 0.731774 16.5008 0.709146 16.533C0.686518 16.563 0.665631 16.5929 0.644744 16.6229C0.623856 16.6528 0.60297 16.6845 0.584403 16.7144C0.563516 16.7443 0.544949 16.7743 0.525802 16.8042C0.507236 16.8359 0.488089 16.8658 0.471263 16.8958C0.454438 16.9257 0.437032 16.9556 0.420206 16.9856C0.403381 17.0155 0.385974 17.0472 0.369149 17.0771C0.354063 17.1071 0.338978 17.137 0.325633 17.167C0.310548 17.1969 0.295463 17.2268 0.280378 17.2568C0.267033 17.2867 0.25601 17.3167 0.242665 17.3466C0.229321 17.3765 0.215976 17.4065 0.204952 17.4381C0.193348 17.4664 0.182324 17.4963 0.173041 17.5262C0.161437 17.5562 0.150413 17.5861 0.14113 17.6178C0.131847 17.646 0.124304 17.6759 0.114441 17.7041C0.105157 17.7358 0.0952936 17.7657 0.087751 17.798C0.0802084 17.8262 0.0744072 17.8544 0.0686052 17.8821C0.0610626 17.9137 0.05352 17.9437 0.047718 17.9759C0.041916 18.0041 0.0384341 18.0323 0.0343727 18.06C0.0285707 18.0899 0.022769 18.1216 0.0192878 18.1538C0.0152264 18.182 0.0134855 18.2102 0.0117449 18.2361C0.00768354 18.2678 0.00594354 18.3001 0.00420294 18.3317C0.00246234 18.3599 0.00246153 18.3858 0.00246153 18.4141C0.000720924 18.4457 -0.00101961 18.478 0.000720995 18.5096C0.000720995 18.5361 0.00246153 18.5638 0.00246153 18.592C0.00420213 18.6219 0.00652328 18.6536 0.00826388 18.6858C0.0100045 18.714 0.0140661 18.7422 0.0175473 18.7699C0.0216087 18.7998 0.0233491 18.8315 0.0291511 18.8614C0.0332125 18.8931 0.0384339 18.923 0.0459765 18.9553C0.0494577 18.9818 0.0535197 19.0094 0.0610623 19.0376C0.0726663 19.0958 0.0877515 19.1539 0.104577 19.2121C0.463141 20.469 1.6659 21.2877 3.67803 21.6476C4.47465 21.7898 5.41283 21.8612 6.46647 21.8612C6.58193 21.8612 6.69855 21.8612 6.81401 21.8594H6.84825C6.87668 21.8594 6.90685 21.8594 6.93702 21.8612L6.93528 21.8594C6.95036 21.8594 6.96719 21.8594 6.98459 21.8612C6.33535 20.9135 5.80098 19.8811 5.40065 18.7849C5.38556 18.7831 5.37222 18.7831 5.35887 18.7808C5.14536 18.7618 4.94925 18.7394 4.76591 18.7152C4.75836 18.7152 4.75082 18.7135 4.74328 18.7135C4.7015 18.7077 4.66031 18.7025 4.61853 18.6945C4.59185 18.6904 4.56574 18.687 4.54137 18.6829C4.50714 18.6772 4.47523 18.6737 4.44157 18.668C4.4114 18.6622 4.38123 18.657 4.35106 18.653C4.32263 18.6472 4.29653 18.6415 4.2681 18.638C4.23386 18.6305 4.20195 18.6248 4.1683 18.619C4.14741 18.6133 4.12653 18.6098 4.10622 18.6058C4.06444 18.5983 4.02325 18.5891 3.98322 18.5816C3.97393 18.5776 3.96233 18.5758 3.95304 18.5741C3.84745 18.5517 3.75288 18.5275 3.66585 18.505C3.66179 18.505 3.66004 18.5033 3.6583 18.5033C3.61653 18.4918 3.57882 18.4808 3.5411 18.4716C3.5353 18.4699 3.53182 18.4682 3.52602 18.4659C3.49179 18.4567 3.45988 18.4469 3.4297 18.4377C3.4239 18.4359 3.4181 18.4342 3.41288 18.4319C3.38445 18.4227 3.35602 18.4129 3.32817 18.4054C3.32411 18.4037 3.32063 18.4014 3.31657 18.3997C3.28814 18.3905 3.26203 18.3807 3.23708 18.3732C3.23534 18.3715 3.23128 18.3715 3.22954 18.3692C3.20285 18.3599 3.17848 18.3501 3.15585 18.3409C3.16687 18.3219 3.18022 18.3035 3.1953 18.2828C3.20111 18.2753 3.20865 18.2661 3.21619 18.2563C3.22547 18.2431 3.23534 18.2298 3.24462 18.2171C3.25216 18.2079 3.26145 18.1964 3.27131 18.1855C3.28059 18.1722 3.2922 18.159 3.30322 18.1463C3.31251 18.1348 3.32411 18.1221 3.33339 18.1089C3.345 18.0957 3.35776 18.0824 3.36936 18.0698C3.38097 18.0565 3.39373 18.0415 3.40534 18.0283C3.41868 18.0133 3.43377 17.9984 3.44711 17.9834C3.46045 17.9701 3.4738 17.9552 3.48888 17.9402C3.50397 17.9235 3.5208 17.9062 3.5382 17.8895C3.55155 17.8763 3.56489 17.8613 3.57998 17.8481C3.61189 17.8164 3.64438 17.7842 3.67803 17.7525C3.69312 17.7393 3.7082 17.726 3.72155 17.7111C3.74591 17.6903 3.76854 17.6679 3.79349 17.6471C3.80858 17.6322 3.82772 17.6172 3.84281 17.6022C3.8695 17.5798 3.89561 17.5556 3.92229 17.5331C3.93912 17.5182 3.95653 17.5049 3.97335 17.49C4.00352 17.4635 4.03543 17.4376 4.06793 17.4094C4.08301 17.3984 4.09984 17.3852 4.11492 17.3719C4.15438 17.3403 4.19615 17.3063 4.23792 17.2729C4.24953 17.2654 4.25881 17.2579 4.2681 17.2504C4.42881 17.1249 4.60809 16.9919 4.81 16.8497C4.81928 16.8439 4.83089 16.8365 4.84191 16.829C4.84191 16.8273 4.84365 16.8273 4.84597 16.8273V16.8255C4.8744 16.8065 4.90283 16.7864 4.93068 16.7674C4.9742 16.7374 5.01771 16.7075 5.06297 16.6776C5.10474 16.6493 5.14594 16.6211 5.18945 16.5935C5.19119 16.5918 5.19351 16.5918 5.19525 16.5895C5.23703 16.563 5.27822 16.5353 5.32 16.5089V16.5071C5.36351 16.4789 5.40703 16.4507 5.45228 16.4231C5.88627 16.1496 6.34173 15.8853 6.80763 15.6325C6.8964 15.5819 6.98517 15.5352 7.07568 15.4863L7.19056 15.4281C7.54565 15.241 7.91523 15.0556 8.29875 14.8697C8.47803 14.7833 8.66137 14.6975 8.8482 14.6111C9.55256 14.2853 10.2999 13.9628 11.0796 13.6485C11.1893 13.6035 11.2984 13.5604 11.4098 13.5155C11.5287 13.4688 11.6494 13.4216 11.7701 13.375C12.0967 13.2477 12.4292 13.1222 12.7669 12.9984C12.9989 12.9121 13.231 12.828 13.4672 12.7457C13.701 12.6616 13.9389 12.5787 14.1791 12.4981C14.3827 12.4267 14.5904 12.3576 14.7981 12.2885C15.0755 12.197 15.3534 12.1066 15.6342 12.0185C15.8605 11.9453 16.0891 11.874 16.3194 11.8049C16.837 11.6477 17.358 11.4939 17.8842 11.346L18.0107 11.3103C18.2033 11.2562 18.396 11.2038 18.5863 11.1508C18.7673 11.1001 18.9466 11.0535 19.1317 11.0063C19.1978 10.9873 19.2616 10.9706 19.3318 10.9522C19.5355 10.8998 19.738 10.8474 19.9451 10.7984C20.1563 10.7443 20.3663 10.6919 20.5758 10.643H20.5816L20.6268 10.6315C20.8363 10.5791 21.044 10.5301 21.2517 10.4835H21.2709L21.3254 10.4668C21.3387 10.4628 21.3521 10.4593 21.3707 10.4558C21.5818 10.4069 21.7919 10.3603 22.0124 10.3136L22.0315 10.3096L22.0483 10.3056C22.2978 10.2532 22.545 10.2008 22.7904 10.1501C22.9093 10.1259 23.0283 10.1035 23.1455 10.0787L23.2813 10.0522C23.4774 10.0131 23.6741 9.97738 23.8684 9.94169L24.0668 9.90426C24.1237 9.89505 24.1817 9.88353 24.2386 9.87432C24.3802 9.85014 24.5235 9.82538 24.6674 9.8012C24.7956 9.77702 24.9221 9.75629 25.0526 9.73729L25.1849 9.71656L25.2 9.71253L25.3491 9.68835C25.3735 9.68432 25.5475 9.65841 25.5475 9.65841C25.6456 9.64344 25.7419 9.62847 25.8457 9.6135C25.8875 9.60774 25.9305 9.60026 25.9722 9.5968L25.9949 9.59277L26.0024 9.59105L26.025 9.58701L26.2646 9.55304L26.4138 9.53232L26.4648 9.52656C26.5988 9.50756 26.7329 9.49086 26.8727 9.47416L26.9087 9.47013C26.9632 9.46265 27.0201 9.45516 27.0862 9.44768C27.139 9.44019 27.1918 9.43444 27.2521 9.42868C27.3107 9.42119 27.3711 9.41371 27.4407 9.40795L27.6258 9.38722C27.9107 9.35556 28.1886 9.3308 28.4642 9.30662L28.4868 9.30489C28.5396 9.29913 28.5924 9.29568 28.6603 9.29165C28.7096 9.28589 28.7566 9.28244 28.8077 9.28071C28.8193 9.28071 28.8286 9.27898 28.8396 9.27668C28.8964 9.27265 28.951 9.26919 29.0078 9.26516C29.0305 9.26343 29.0513 9.26113 29.074 9.26113C29.0908 9.25941 29.1099 9.2594 29.1268 9.2571L29.1645 9.25307H29.1685C29.3119 9.24386 29.4499 9.23637 29.5898 9.23062C30.0087 9.20816 30.4148 9.19665 30.8302 9.19665H30.8436C30.9474 9.19665 31.0513 9.19665 31.1569 9.20068C31.4191 9.20471 31.6611 9.21392 31.8856 9.22716C33.1696 9.30201 33.8566 9.50986 34.1414 9.64517C34.0695 9.75744 33.943 9.92269 33.7353 10.1323C33.6767 10.1904 33.6146 10.2503 33.5485 10.3119C33.5317 10.3269 33.5142 10.3436 33.4974 10.3585C33.433 10.415 33.3692 10.4725 33.299 10.5307C33.2932 10.5347 33.2897 10.5399 33.2839 10.5439C33.2044 10.6113 33.1197 10.6787 33.0327 10.7483C33.0234 10.7558 33.0135 10.7633 33.0042 10.7691C32.9248 10.8307 32.8435 10.8911 32.7606 10.9527C32.6585 11.0276 32.5529 11.1047 32.4432 11.1796C32.6318 12.0922 32.7321 13.0399 32.7321 14.0083C32.7321 14.2087 32.7281 14.409 32.7188 14.6077C33.317 14.2593 33.8513 13.9162 34.3271 13.5811C34.3364 13.5753 34.3463 13.5679 34.3555 13.5604C34.4971 13.4613 34.6329 13.36 34.7652 13.2604C34.7802 13.2471 34.7971 13.2362 34.8145 13.223C34.941 13.1257 35.0616 13.0301 35.1788 12.9328C35.1939 12.9195 35.209 12.9063 35.2258 12.8936C35.3407 12.7981 35.4521 12.7007 35.5583 12.6052C35.5716 12.5937 35.5827 12.5827 35.5943 12.5712C35.7016 12.4739 35.8037 12.3743 35.9018 12.277C35.9093 12.2695 35.9151 12.262 35.9227 12.2563C36.0225 12.1532 36.117 12.0519 36.2075 11.9511C36.9229 11.1364 37.2873 10.3228 37.2873 9.53059C37.2873 9.29107 37.2513 9.04349 37.1817 8.79419L37.1782 8.80282Z" fill="#09242D"/>
<defs>
<linearGradient id="paint0_linear_271_212" x1="4.5293" y1="6.71284" x2="30.3488" y2="6.71284" gradientUnits="userSpaceOnUse">
<stop stop-color="#FC00FF"/>
<stop offset="1" stop-color="#00DBDE"/>
</linearGradient>
<linearGradient id="paint1_linear_271_212" x1="4.84238" y1="18.6012" x2="32.7291" y2="18.6012" gradientUnits="userSpaceOnUse">
<stop stop-color="#FC00FF"/>
<stop offset="1" stop-color="#00DBDE"/>
</linearGradient>
</defs>
</svg>
